<svg width="52" height="52" viewBox="0 0 52 52" fill="none" xmlns="http://www.w3.org/2000/svg">
<rect width="52" height="52" rx="26" fill="#FFD9D9"/>
<path d="M5.25604 33V22.0909H9.17649V33H5.25604ZM7.21626 20.9545C6.68596 20.9545 6.23142 20.7794 5.85263 20.429C5.47384 20.0786 5.28445 19.6572 5.28445 19.1648C5.28445 18.6723 5.47384 18.2509 5.85263 17.9006C6.23142 17.5502 6.68596 17.375 7.21626 17.375C7.7513 17.375 8.20585 17.5502 8.5799 17.9006C8.95869 18.2509 9.14808 18.6723 9.14808 19.1648C9.14808 19.6572 8.95869 20.0786 8.5799 20.429C8.20585 20.7794 7.7513 20.9545 7.21626 20.9545ZM16.4297 33.1989C15.246 33.1989 14.2327 32.9645 13.3899 32.4957C12.5471 32.0223 11.9008 31.3641 11.451 30.5213C11.0012 29.6738 10.7763 28.6913 10.7763 27.5739C10.7763 26.4564 11.0012 25.4763 11.451 24.6335C11.9008 23.786 12.5471 23.1278 13.3899 22.6591C14.2327 22.1856 15.246 21.9489 16.4297 21.9489C17.4998 21.9489 18.4254 22.143 19.2067 22.5312C19.9927 22.9148 20.6011 23.4593 21.032 24.1648C21.4628 24.8655 21.6806 25.6894 21.6854 26.6364H18.049C17.9969 26.0634 17.8312 25.6278 17.5518 25.3295C17.2772 25.0265 16.9221 24.875 16.4865 24.875C16.1456 24.875 15.8473 24.9744 15.5916 25.1733C15.3359 25.3674 15.1371 25.6634 14.995 26.0611C14.853 26.4541 14.782 26.9489 14.782 27.5455C14.782 28.142 14.853 28.6392 14.995 29.0369C15.1371 29.4299 15.3359 29.7259 15.5916 29.9247C15.8473 30.1188 16.1456 30.2159 16.4865 30.2159C16.7753 30.2159 17.031 30.1496 17.2536 30.017C17.4761 29.8797 17.656 29.6809 17.7933 29.4205C17.9354 29.1553 18.0206 28.8333 18.049 28.4545H21.6854C21.6712 29.4157 21.451 30.2538 21.0249 30.9688C20.5987 31.679 19.995 32.2282 19.2138 32.6165C18.4373 33.0047 17.5092 33.1989 16.4297 33.1989ZM28.5586 33.1989C27.3749 33.1989 26.3616 32.9645 25.5188 32.4957C24.676 32.0223 24.0297 31.3641 23.5799 30.5213C23.1301 29.6738 22.9052 28.6913 22.9052 27.5739C22.9052 26.4564 23.1301 25.4763 23.5799 24.6335C24.0297 23.786 24.676 23.1278 25.5188 22.6591C26.3616 22.1856 27.3749 21.9489 28.5586 21.9489C29.7423 21.9489 30.7556 22.1856 31.5984 22.6591C32.4412 23.1278 33.0875 23.786 33.5373 24.6335C33.9871 25.4763 34.212 26.4564 34.212 27.5739C34.212 28.6913 33.9871 29.6738 33.5373 30.5213C33.0875 31.3641 32.4412 32.0223 31.5984 32.4957C30.7556 32.9645 29.7423 33.1989 28.5586 33.1989ZM28.587 30.3011C28.9184 30.3011 29.2049 30.1899 29.4464 29.9673C29.6879 29.7448 29.8749 29.4276 30.0075 29.0156C30.14 28.6037 30.2063 28.1136 30.2063 27.5455C30.2063 26.9725 30.14 26.4825 30.0075 26.0753C29.8749 25.6634 29.6879 25.3461 29.4464 25.1236C29.2049 24.901 28.9184 24.7898 28.587 24.7898C28.2366 24.7898 27.936 24.901 27.685 25.1236C27.4341 25.3461 27.2423 25.6634 27.1097 26.0753C26.9772 26.4825 26.9109 26.9725 26.9109 27.5455C26.9109 28.1136 26.9772 28.6037 27.1097 29.0156C27.2423 29.4276 27.4341 29.7448 27.685 29.9673C27.936 30.1899 28.2366 30.3011 28.587 30.3011ZM39.7234 26.8636V33H35.8029V22.0909H39.5245V24.1648H39.6381C39.8749 23.4735 40.2915 22.9313 40.8881 22.5384C41.4895 22.1454 42.1902 21.9489 42.9904 21.9489C43.7622 21.9489 44.4322 22.1264 45.0004 22.4815C45.5733 22.8319 46.016 23.3149 46.3285 23.9304C46.6457 24.5459 46.802 25.2491 46.7972 26.0398V33H42.8768V26.8636C42.8815 26.3239 42.7442 25.9001 42.4648 25.5923C42.1902 25.2846 41.8067 25.1307 41.3143 25.1307C40.9923 25.1307 40.7106 25.2017 40.4691 25.3438C40.2324 25.4811 40.0501 25.6799 39.9222 25.9403C39.7944 26.196 39.7281 26.5038 39.7234 26.8636Z" fill="black"/>
</svg>
