<svg width="161" height="39" fill="none" xmlns="http://www.w3.org/2000/svg"><mask id="a" maskUnits="userSpaceOnUse" x="3" y="5" width="156" height="28" fill="#000"><path fill="#fff" d="M3 5h156v28H3z"/><path d="M5.023 31V7.727h15.681v4.057H9.944v5.545h9.954v4.057H9.943v5.557H20.75V31H5.023ZM24.616 7.727h6.069l6.409 15.637h.273l6.409-15.637h6.068V31H45.07V15.852h-.193l-6.023 15.034h-3.25l-6.023-15.09h-.193V31h-4.773V7.727ZM53.898 31V7.727h9.181c1.766 0 3.27.337 4.512 1.012 1.242.666 2.19 1.594 2.84 2.784.66 1.181.99 2.545.99 4.09 0 1.546-.334 2.91-1 4.091-.667 1.182-1.633 2.103-2.898 2.762-1.258.659-2.78.988-4.568.988h-5.853v-3.943h5.057c.947 0 1.727-.162 2.341-.488.621-.334 1.083-.792 1.386-1.375.311-.591.466-1.27.466-2.034 0-.773-.155-1.447-.466-2.023-.303-.583-.765-1.034-1.386-1.352-.621-.326-1.41-.489-2.364-.489h-3.318V31h-4.92Zm20.718 0V7.727h9.182c1.758 0 3.258.315 4.5.943 1.25.622 2.201 1.504 2.853 2.648.659 1.136.988 2.474.988 4.011 0 1.546-.333 2.875-1 3.99-.666 1.105-1.632 1.954-2.897 2.545-1.258.59-2.78.886-4.569.886h-6.147v-3.954h5.352c.94 0 1.72-.13 2.34-.387.622-.258 1.084-.644 1.387-1.159.31-.515.466-1.155.466-1.92 0-.773-.155-1.425-.466-1.955-.303-.53-.769-.932-1.398-1.204-.62-.28-1.405-.421-2.352-.421h-3.318V31h-4.92Zm12.569-10.59L92.969 31h-5.432l-5.66-10.59h5.308ZM95.616 31V7.727h15.682v4.057h-10.761v5.545h9.954v4.057h-9.954v5.557h10.807V31H95.617Zm32.219-16.58c-.091-.916-.481-1.628-1.17-2.136-.69-.508-1.625-.761-2.807-.761-.803 0-1.481.113-2.034.34-.553.22-.977.527-1.273.921-.288.394-.432.841-.432 1.341-.015.417.072.78.262 1.09.197.312.466.58.807.808.34.22.734.413 1.181.58.447.158.925.295 1.432.408l2.091.5c1.015.228 1.947.53 2.796.91a8.491 8.491 0 0 1 2.204 1.397 5.812 5.812 0 0 1 1.443 1.955c.349.75.527 1.61.534 2.58-.007 1.423-.371 2.658-1.091 3.704-.712 1.038-1.742 1.845-3.09 2.42-1.341.569-2.959.852-4.853.852-1.879 0-3.515-.287-4.909-.863-1.386-.576-2.47-1.428-3.25-2.557-.773-1.136-1.178-2.542-1.216-4.216h4.762c.053.78.276 1.432.67 1.955.402.515.936.905 1.602 1.17.675.258 1.436.386 2.284.386.834 0 1.557-.12 2.171-.363.621-.242 1.102-.58 1.443-1.012.341-.431.511-.928.511-1.488 0-.523-.155-.962-.465-1.318-.304-.356-.75-.66-1.341-.91-.584-.25-1.3-.477-2.148-.681l-2.534-.636c-1.962-.478-3.512-1.224-4.648-2.24-1.136-1.014-1.701-2.382-1.693-4.102-.008-1.409.367-2.64 1.125-3.693.765-1.053 1.814-1.875 3.148-2.466 1.333-.59 2.848-.886 4.545-.886 1.727 0 3.235.296 4.523.886 1.295.591 2.303 1.413 3.023 2.466.719 1.053 1.09 2.273 1.113 3.66h-4.716ZM139.659 31h-5.273l8.034-23.273h6.341L156.784 31h-5.273l-5.829-17.954h-.182L139.659 31Zm-.329-9.148h12.454v3.841H139.33v-3.84Z"/></mask><path d="M5.023 31V7.727h15.681v4.057H9.944v5.545h9.954v4.057H9.943v5.557H20.75V31H5.023ZM24.616 7.727h6.069l6.409 15.637h.273l6.409-15.637h6.068V31H45.07V15.852h-.193l-6.023 15.034h-3.25l-6.023-15.09h-.193V31h-4.773V7.727ZM53.898 31V7.727h9.181c1.766 0 3.27.337 4.512 1.012 1.242.666 2.19 1.594 2.84 2.784.66 1.181.99 2.545.99 4.09 0 1.546-.334 2.91-1 4.091-.667 1.182-1.633 2.103-2.898 2.762-1.258.659-2.78.988-4.568.988h-5.853v-3.943h5.057c.947 0 1.727-.162 2.341-.488.621-.334 1.083-.792 1.386-1.375.311-.591.466-1.27.466-2.034 0-.773-.155-1.447-.466-2.023-.303-.583-.765-1.034-1.386-1.352-.621-.326-1.41-.489-2.364-.489h-3.318V31h-4.92Zm20.718 0V7.727h9.182c1.758 0 3.258.315 4.5.943 1.25.622 2.201 1.504 2.853 2.648.659 1.136.988 2.474.988 4.011 0 1.546-.333 2.875-1 3.99-.666 1.105-1.632 1.954-2.897 2.545-1.258.59-2.78.886-4.569.886h-6.147v-3.954h5.352c.94 0 1.72-.13 2.34-.387.622-.258 1.084-.644 1.387-1.159.31-.515.466-1.155.466-1.92 0-.773-.155-1.425-.466-1.955-.303-.53-.769-.932-1.398-1.204-.62-.28-1.405-.421-2.352-.421h-3.318V31h-4.92Zm12.569-10.59L92.969 31h-5.432l-5.66-10.59h5.308ZM95.616 31V7.727h15.682v4.057h-10.761v5.545h9.954v4.057h-9.954v5.557h10.807V31H95.617Zm32.219-16.58c-.091-.916-.481-1.628-1.17-2.136-.69-.508-1.625-.761-2.807-.761-.803 0-1.481.113-2.034.34-.553.22-.977.527-1.273.921-.288.394-.432.841-.432 1.341-.015.417.072.78.262 1.09.197.312.466.58.807.808.34.22.734.413 1.181.58.447.158.925.295 1.432.408l2.091.5c1.015.228 1.947.53 2.796.91a8.491 8.491 0 0 1 2.204 1.397 5.812 5.812 0 0 1 1.443 1.955c.349.75.527 1.61.534 2.58-.007 1.423-.371 2.658-1.091 3.704-.712 1.038-1.742 1.845-3.09 2.42-1.341.569-2.959.852-4.853.852-1.879 0-3.515-.287-4.909-.863-1.386-.576-2.47-1.428-3.25-2.557-.773-1.136-1.178-2.542-1.216-4.216h4.762c.053.78.276 1.432.67 1.955.402.515.936.905 1.602 1.17.675.258 1.436.386 2.284.386.834 0 1.557-.12 2.171-.363.621-.242 1.102-.58 1.443-1.012.341-.431.511-.928.511-1.488 0-.523-.155-.962-.465-1.318-.304-.356-.75-.66-1.341-.91-.584-.25-1.3-.477-2.148-.681l-2.534-.636c-1.962-.478-3.512-1.224-4.648-2.24-1.136-1.014-1.701-2.382-1.693-4.102-.008-1.409.367-2.64 1.125-3.693.765-1.053 1.814-1.875 3.148-2.466 1.333-.59 2.848-.886 4.545-.886 1.727 0 3.235.296 4.523.886 1.295.591 2.303 1.413 3.023 2.466.719 1.053 1.09 2.273 1.113 3.66h-4.716ZM139.659 31h-5.273l8.034-23.273h6.341L156.784 31h-5.273l-5.829-17.954h-.182L139.659 31Zm-.329-9.148h12.454v3.841H139.33v-3.84Z" fill="#00FFC2"/><path d="M5.023 31h-1.5a1.5 1.5 0 0 0 1.5 1.5V31Zm0-23.273v-1.5a1.5 1.5 0 0 0-1.5 1.5h1.5Zm15.681 0h1.5a1.5 1.5 0 0 0-1.5-1.5v1.5Zm0 4.057v1.5a1.5 1.5 0 0 0 1.5-1.5h-1.5Zm-10.76 0v-1.5a1.5 1.5 0 0 0-1.5 1.5h1.5Zm0 5.545h-1.5a1.5 1.5 0 0 0 1.5 1.5v-1.5Zm9.954 0h1.5a1.5 1.5 0 0 0-1.5-1.5v1.5Zm0 4.057v1.5a1.5 1.5 0 0 0 1.5-1.5h-1.5Zm-9.955 0v-1.5a1.5 1.5 0 0 0-1.5 1.5h1.5Zm0 5.557h-1.5a1.5 1.5 0 0 0 1.5 1.5v-1.5Zm10.807 0h1.5a1.5 1.5 0 0 0-1.5-1.5v1.5Zm0 4.057v1.5a1.5 1.5 0 0 0 1.5-1.5h-1.5ZM6.523 31V7.727h-3V31h3Zm-1.5-21.773h15.681v-3H5.024v3Zm14.181-1.5v4.057h3V7.727h-3Zm1.5 2.557H9.944v3h10.76v-3Zm-12.26 1.5v5.545h3v-5.545h-3Zm1.5 7.045h9.954v-3H9.943v3Zm8.454-1.5v4.057h3V17.33h-3Zm1.5 2.557H9.943v3h9.955v-3Zm-11.455 1.5v5.557h3v-5.557h-3Zm1.5 7.057H20.75v-3H9.943v3Zm9.307-1.5V31h3v-4.057h-3Zm1.5 2.557H5.023v3H20.75v-3Zm3.866-21.773v-1.5a1.5 1.5 0 0 0-1.5 1.5h1.5Zm6.069 0 1.388-.569a1.5 1.5 0 0 0-1.388-.93v1.5Zm6.409 15.637-1.388.569a1.5 1.5 0 0 0 1.388.93v-1.5Zm.273 0v1.5a1.5 1.5 0 0 0 1.387-.931l-1.387-.57Zm6.409-15.637v-1.5a1.5 1.5 0 0 0-1.388.931l1.388.57Zm6.068 0h1.5a1.5 1.5 0 0 0-1.5-1.5v1.5Zm0 23.273v1.5a1.5 1.5 0 0 0 1.5-1.5h-1.5Zm-4.773 0h-1.5a1.5 1.5 0 0 0 1.5 1.5V31Zm0-15.148h1.5a1.5 1.5 0 0 0-1.5-1.5v1.5Zm-.193 0v-1.5a1.5 1.5 0 0 0-1.393.942l1.393.558Zm-6.023 15.034v1.5a1.5 1.5 0 0 0 1.393-.942l-1.393-.558Zm-3.25 0-1.393.556a1.5 1.5 0 0 0 1.393.944v-1.5Zm-6.023-15.09 1.393-.556a1.5 1.5 0 0 0-1.393-.944v1.5Zm-.193 0v-1.5a1.5 1.5 0 0 0-1.5 1.5h1.5Zm0 15.204v1.5a1.5 1.5 0 0 0 1.5-1.5h-1.5Zm-4.773 0h-1.5a1.5 1.5 0 0 0 1.5 1.5V31Zm0-21.773h6.069v-3h-6.069v3Zm4.68-.93 6.41 15.636 2.776-1.138-6.41-15.637-2.775 1.138Zm7.798 16.567h.273v-3h-.273v3Zm1.66-.931 6.41-15.637-2.776-1.138-6.41 15.637 2.776 1.137Zm5.022-14.706h6.068v-3h-6.068v3Zm4.568-1.5V31h3V7.727h-3Zm1.5 21.773H45.07v3h4.773v-3ZM46.57 31V15.852h-3V31h3Zm-1.5-16.648h-.193v3h.193v-3Zm-1.586.942L37.463 30.33l2.785 1.115L46.27 16.41l-2.785-1.116Zm-4.63 14.092h-3.25v3h3.25v-3Zm-1.857.944-6.022-15.09-2.787 1.112 6.023 15.09 2.786-1.112Zm-7.416-16.034h-.193v3h.193v-3Zm-1.693 1.5V31h3V15.796h-3Zm1.5 13.704h-4.773v3h4.773v-3ZM26.116 31V7.727h-3V31h3Zm27.782 0h-1.5a1.5 1.5 0 0 0 1.5 1.5V31Zm0-23.273v-1.5a1.5 1.5 0 0 0-1.5 1.5h1.5ZM67.59 8.74l-.716 1.318.007.003.709-1.321Zm2.84 2.784-1.315.72.006.01 1.31-.73Zm-2.908 10.943-.693-1.33-.004.001.697 1.329Zm-10.42.988h-1.5a1.5 1.5 0 0 0 1.5 1.5v-1.5Zm0-3.943v-1.5a1.5 1.5 0 0 0-1.5 1.5h1.5Zm7.397-.488.703 1.325.006-.003-.709-1.322Zm1.386-1.375-1.327-.698-.004.006 1.331.692Zm0-4.057-1.33.691.01.021 1.32-.712ZM64.5 12.239l-.697 1.328.013.007.684-1.335Zm-5.682-.489v-1.5a1.5 1.5 0 0 0-1.5 1.5h1.5Zm0 19.25v1.5a1.5 1.5 0 0 0 1.5-1.5h-1.5Zm-3.42 0V7.727h-3V31h3Zm-1.5-21.773h9.181v-3h-9.181v3Zm9.181 0c1.577 0 2.822.301 3.796.83l1.431-2.637c-1.51-.82-3.272-1.193-5.226-1.193v3Zm3.803.833c.997.535 1.728 1.26 2.234 2.183l2.631-1.44c-.796-1.456-1.96-2.588-3.447-3.386l-1.418 2.643Zm2.24 2.193c.517.929.799 2.034.799 3.36h3c0-1.764-.379-3.386-1.18-4.82l-2.62 1.46Zm.799 3.36c0 1.324-.284 2.427-.807 3.355l2.613 1.474c.81-1.437 1.194-3.061 1.194-4.828h-3Zm-.807 3.355c-.516.915-1.263 1.636-2.284 2.168l1.386 2.66c1.509-.786 2.694-1.906 3.51-3.354l-2.612-1.474Zm-2.288 2.17c-.994.52-2.265.816-3.871.816v3c1.969 0 3.743-.362 5.264-1.16l-1.393-2.657Zm-3.871.816h-5.853v3h5.853v-3Zm-4.353 1.5v-3.943h-3v3.944h3Zm-1.5-2.443h5.057v-3h-5.057v3Zm5.057 0c1.108 0 2.15-.188 3.044-.663l-1.406-2.65c-.333.177-.851.313-1.638.313v3Zm3.05-.666c.867-.466 1.556-1.135 2.008-2.006l-2.662-1.383c-.153.296-.389.544-.764.745l1.418 2.643Zm2.005-2c.44-.835.638-1.759.638-2.731h-3c0 .557-.112.99-.293 1.336l2.655 1.396Zm.638-2.731c0-.977-.197-1.904-.645-2.735l-2.64 1.424c.172.32.285.741.285 1.31h3Zm-.635-2.715c-.455-.877-1.153-1.544-2.033-1.995l-1.368 2.67c.362.185.589.42.74.708l2.662-1.383Zm-2.02-1.989c-.9-.472-1.947-.66-3.06-.66v3c.795 0 1.324.137 1.666.317l1.394-2.657Zm-3.06-.66h-3.319v3h3.318v-3Zm-4.819 1.5V31h3V11.75h-3Zm1.5 17.75h-4.92v3h4.92v-3ZM74.617 31h-1.5a1.5 1.5 0 0 0 1.5 1.5V31Zm0-23.273v-1.5a1.5 1.5 0 0 0-1.5 1.5h1.5Zm13.681.943-.677 1.339.01.005.667-1.344Zm2.853 2.648-1.304.743.006.01 1.298-.753Zm-.012 8 1.285.774.002-.003-1.287-.77Zm-2.897 2.546-.635-1.36-.003.002.638 1.358Zm-10.716.886h-1.5a1.5 1.5 0 0 0 1.5 1.5v-1.5Zm0-3.954v-1.5a1.5 1.5 0 0 0-1.5 1.5h1.5Zm7.693-.387.574 1.386-.574-1.386Zm1.386-1.159-1.285-.774-.008.014 1.293.76Zm0-3.875-1.302.744.008.014 1.294-.758Zm-1.398-1.204-.616 1.367.02.009.596-1.377Zm-5.67-.421v-1.5a1.5 1.5 0 0 0-1.5 1.5h1.5Zm0 19.25v1.5a1.5 1.5 0 0 0 1.5-1.5h-1.5Zm7.648-10.59 1.316-.72a1.5 1.5 0 0 0-1.316-.78v1.5ZM92.969 31v1.5a1.5 1.5 0 0 0 1.316-2.219L92.97 31Zm-5.432 0-1.323.707a1.5 1.5 0 0 0 1.323.793V31Zm-5.66-10.59v-1.5a1.5 1.5 0 0 0-1.322 2.206l1.323-.707ZM76.118 31V7.727h-3V31h3Zm-1.5-21.773h9.181v-3h-9.181v3Zm9.181 0c1.583 0 2.838.283 3.823.782l1.355-2.677c-1.5-.76-3.245-1.105-5.178-1.105v3Zm3.833.787c1 .497 1.721 1.178 2.216 2.046l2.607-1.484c-.808-1.42-1.988-2.503-3.488-3.249l-1.335 2.687Zm2.222 2.057c.505.871.786 1.94.786 3.258h3c0-1.756-.378-3.362-1.19-4.763l-2.596 1.505Zm.786 3.258c0 1.327-.284 2.379-.787 3.219l2.574 1.54c.83-1.387 1.213-2.994 1.213-4.759h-3Zm-.784 3.215c-.5.83-1.23 1.485-2.248 1.96l1.27 2.719c1.511-.706 2.714-1.748 3.547-3.13l-2.57-1.55Zm-2.251 1.962c-1.01.474-2.302.744-3.93.744v3c1.947 0 3.7-.321 5.205-1.029l-1.275-2.715Zm-3.93.744h-6.148v3h6.147v-3Zm-4.648 1.5v-3.954h-3v3.954h3Zm-1.5-2.454h5.352v-3h-5.352v3Zm5.352 0c1.064 0 2.055-.145 2.915-.501l-1.149-2.772c-.382.159-.951.273-1.766.273v3Zm2.915-.501c.883-.366 1.616-.954 2.105-1.785l-2.586-1.52c-.117.199-.308.384-.668.534l1.15 2.77Zm2.097-1.77c.485-.805.681-1.73.681-2.695h-3c0 .565-.114.92-.25 1.146l2.569 1.549Zm.681-2.695c0-.972-.196-1.9-.672-2.713l-2.588 1.516c.145.248.26.623.26 1.197h3Zm-.663-2.7c-.484-.845-1.216-1.45-2.104-1.836l-1.194 2.753c.37.16.57.357.693.572l2.605-1.488Zm-2.084-1.827c-.875-.395-1.887-.553-2.969-.553v3c.812 0 1.368.122 1.736.288l1.233-2.735Zm-2.969-.553h-3.318v3h3.318v-3Zm-4.818 1.5V31h3V11.75h-3Zm1.5 17.75h-4.92v3h4.92v-3Zm6.331-8.372 5.784 10.591 2.633-1.438-5.784-10.59-2.633 1.437Zm7.1 8.372h-5.431v3h5.432v-3Zm-4.108.793-5.66-10.59-2.645 1.413 5.659 10.59 2.646-1.413Zm-6.982-8.384h5.307v-3h-5.307v3ZM95.617 31h-1.5a1.5 1.5 0 0 0 1.5 1.5V31Zm0-23.273v-1.5a1.5 1.5 0 0 0-1.5 1.5h1.5Zm15.681 0h1.5a1.5 1.5 0 0 0-1.5-1.5v1.5Zm0 4.057v1.5a1.5 1.5 0 0 0 1.5-1.5h-1.5Zm-10.761 0v-1.5a1.5 1.5 0 0 0-1.5 1.5h1.5Zm0 5.545h-1.5a1.5 1.5 0 0 0 1.5 1.5v-1.5Zm9.954 0h1.5a1.5 1.5 0 0 0-1.5-1.5v1.5Zm0 4.057v1.5a1.5 1.5 0 0 0 1.5-1.5h-1.5Zm-9.954 0v-1.5a1.5 1.5 0 0 0-1.5 1.5h1.5Zm0 5.557h-1.5a1.5 1.5 0 0 0 1.5 1.5v-1.5Zm10.807 0h1.5a1.5 1.5 0 0 0-1.5-1.5v1.5Zm0 4.057v1.5a1.5 1.5 0 0 0 1.5-1.5h-1.5Zm-14.227 0V7.727h-3V31h3Zm-1.5-21.773h15.681v-3H95.617v3Zm14.181-1.5v4.057h3V7.727h-3Zm1.5 2.557h-10.761v3h10.761v-3Zm-12.261 1.5v5.545h3v-5.545h-3Zm1.5 7.045h9.954v-3h-9.954v3Zm8.454-1.5v4.057h3V17.33h-3Zm1.5 2.557h-9.954v3h9.954v-3Zm-11.454 1.5v5.557h3v-5.557h-3Zm1.5 7.057h10.807v-3h-10.807v3Zm9.307-1.5V31h3v-4.057h-3Zm1.5 2.557H95.617v3h15.727v-3Zm16.491-15.08-1.492.149a1.5 1.5 0 0 0 1.492 1.351v-1.5Zm-6.011-2.556.554 1.394.016-.007-.57-1.387Zm-1.273.92-1.2-.9-.011.015 1.211.885Zm-.432 1.341 1.499.055.001-.055h-1.5Zm.262 1.09-1.281.782.014.022 1.267-.803Zm.807.808-.833 1.248.02.013.813-1.261Zm1.181.58-.524 1.405a.888.888 0 0 0 .021.007l.503-1.413Zm1.432.408.349-1.458-.021-.005-.328 1.463Zm2.091.5-.349 1.46c.007 0 .014.003.021.004l.328-1.464Zm2.796.91-.612 1.37.612-1.37Zm2.204 1.397.997-1.12-.997 1.12Zm1.443 1.955-1.365.62.005.012 1.36-.632Zm.534 2.58 1.5.007v-.02l-1.5.012Zm-1.091 3.704-1.235-.85-.001.001 1.236.849Zm-3.09 2.42.585 1.381.004-.001-.589-1.38Zm-9.762-.011-.575 1.385.002.001.573-1.386Zm-3.25-2.557-1.24.844.006.009 1.234-.853Zm-1.216-4.216v-1.5a1.5 1.5 0 0 0-1.499 1.534l1.499-.034Zm4.762 0 1.496-.102a1.5 1.5 0 0 0-1.496-1.398v1.5Zm.67 1.955-1.198.902.015.02 1.183-.922Zm1.602 1.17-.554 1.394.019.007.535-1.4Zm4.455.023-.545-1.398-.006.003.551 1.395Zm1.443-1.012 1.177.93-1.177-.93Zm.046-2.806-1.143.972.012.014 1.131-.986Zm-1.341-.91-.591 1.38.006.002.585-1.381Zm-2.148-.681-.365 1.455.013.003.352-1.458Zm-2.534-.636.365-1.455-.011-.003-.354 1.457Zm-4.648-2.24-.999 1.12.999-1.12Zm-1.693-4.102 1.5.007v-.014l-1.5.008Zm1.125-3.693-1.214-.881-.004.005 1.218.876Zm12.216-2.466-.626 1.364.003.001.623-1.365Zm3.023 2.466-1.239.847 1.239-.847Zm1.113 3.66v1.5a1.5 1.5 0 0 0 1.5-1.525l-1.5.024Zm-3.223-.149c-.129-1.303-.714-2.416-1.774-3.196l-1.779 2.416c.319.235.515.546.568 1.076l2.985-.296Zm-1.774-3.196c-1.029-.757-2.313-1.053-3.696-1.053v3c.981 0 1.568.211 1.917.469l1.779-2.416Zm-3.696-1.053c-.935 0-1.82.13-2.604.453l1.14 2.775c.322-.132.793-.228 1.464-.228v-3Zm-2.588.447c-.756.3-1.426.757-1.919 1.414l2.4 1.8c.098-.13.277-.287.627-.426l-1.108-2.788Zm-1.93 1.43a3.718 3.718 0 0 0-.721 2.225h3a.72.72 0 0 1 .143-.456l-2.422-1.77Zm-.72 2.17c-.024.667.116 1.33.48 1.927l2.561-1.562c-.014-.024-.049-.088-.043-.255l-2.998-.11Zm.494 1.95c.321.506.746.92 1.241 1.25l1.665-2.495a1.24 1.24 0 0 1-.373-.362l-2.533 1.606Zm1.261 1.264a7.62 7.62 0 0 0 1.47.724l1.048-2.811a4.64 4.64 0 0 1-.893-.435l-1.625 2.522Zm1.491.731c.51.182 1.046.334 1.607.46l.656-2.927a10.77 10.77 0 0 1-1.257-.359l-1.006 2.826Zm1.586.455 2.091.5.698-2.918-2.091-.5-.698 2.918Zm2.112.505a13.25 13.25 0 0 1 2.512.815l1.223-2.74a16.25 16.25 0 0 0-3.079-1.002l-.656 2.927Zm2.512.815a7.008 7.008 0 0 1 1.819 1.149l1.994-2.241a9.97 9.97 0 0 0-2.59-1.647l-1.223 2.74Zm1.819 1.149c.466.415.821.897 1.075 1.454l2.731-1.241a7.32 7.32 0 0 0-1.812-2.454l-1.994 2.24Zm1.08 1.466c.244.525.388 1.167.394 1.959l3-.023c-.009-1.148-.22-2.225-.673-3.2l-2.721 1.264Zm.394 1.94c-.006 1.16-.298 2.093-.826 2.861l2.471 1.701c.911-1.323 1.346-2.86 1.355-4.547l-3-.016Zm-.827 2.863c-.526.767-1.313 1.407-2.444 1.89l1.179 2.759c1.566-.669 2.84-1.642 3.738-2.951l-2.473-1.698Zm-2.44 1.888c-1.109.47-2.516.733-4.267.733v3c2.038 0 3.865-.304 5.438-.97l-1.171-2.763Zm-4.267.733c-1.729 0-3.163-.265-4.336-.75l-1.146 2.773c1.615.667 3.454.978 5.482.978v-3Zm-4.334-.748c-1.146-.476-1.99-1.155-2.591-2.025l-2.468 1.706c.96 1.388 2.282 2.414 3.909 3.09l1.15-2.771Zm-2.584-2.015c-.578-.85-.924-1.958-.957-3.407l-2.999.068c.043 1.9.507 3.602 1.475 5.026l2.481-1.687Zm-2.457-1.873h4.762v-3h-4.762v3Zm3.265-1.398c.069 1.013.368 1.958.969 2.755l2.396-1.805c-.187-.248-.335-.606-.372-1.154l-2.993.204Zm.984 2.775c.581.746 1.342 1.288 2.231 1.642l1.109-2.788c-.444-.176-.752-.414-.974-.698l-2.366 1.844Zm2.25 1.65c.872.333 1.819.485 2.819.485v-3c-.697 0-1.272-.106-1.748-.288l-1.071 2.802Zm2.819.485c.975 0 1.893-.142 2.722-.469l-1.102-2.79c-.399.157-.927.258-1.62.258v3Zm2.716-.467c.817-.319 1.537-.797 2.075-1.479l-2.354-1.859c-.144.182-.386.378-.811.544l1.09 2.794Zm2.075-1.479a3.83 3.83 0 0 0 .834-2.418h-3c0 .23-.061.397-.188.56l2.354 1.858Zm.834-2.418c0-.844-.26-1.645-.835-2.304l-2.261 1.972c.047.053.096.13.096.332h3Zm-.823-2.29c-.5-.588-1.169-1.01-1.899-1.319l-1.169 2.763c.452.191.677.375.783.5l2.285-1.945Zm-1.893-1.316c-.683-.293-1.484-.544-2.387-.761l-.703 2.916c.795.192 1.425.395 1.909.602l1.181-2.757Zm-2.373-.758-2.534-.636-.731 2.91 2.535.636.73-2.91Zm-2.545-.639c-1.797-.437-3.1-1.094-4.003-1.9l-1.998 2.238c1.37 1.224 3.166 2.06 5.292 2.577l.709-2.915Zm-4.003-1.9c-.773-.69-1.198-1.625-1.192-2.977l-3-.013c-.009 2.088.694 3.888 2.194 5.227l1.998-2.237Zm-1.192-2.991c-.006-1.121.286-2.036.842-2.81l-2.435-1.752c-.959 1.333-1.416 2.88-1.407 4.578l3-.016Zm.838-2.804c.592-.814 1.421-1.48 2.542-1.976l-1.215-2.743c-1.545.685-2.815 1.664-3.754 2.956l2.427 1.763Zm2.542-1.976c1.114-.494 2.416-.758 3.938-.758v-3c-1.872 0-3.6.327-5.153 1.015l1.215 2.743Zm3.938-.758c1.558 0 2.844.266 3.897.75l1.251-2.727c-1.522-.698-3.251-1.023-5.148-1.023v3Zm3.9.751c1.077.491 1.859 1.146 2.407 1.948l2.477-1.693c-.891-1.304-2.124-2.293-3.639-2.984l-1.245 2.73Zm2.407 1.948c.54.79.834 1.718.852 2.837l3-.05c-.027-1.652-.475-3.163-1.375-4.48l-2.477 1.693Zm2.352 1.313h-4.716v3h4.716v-3ZM139.659 31v1.5a1.5 1.5 0 0 0 1.427-1.036L139.659 31Zm-5.273 0-1.418-.49a1.5 1.5 0 0 0 1.418 1.99V31Zm8.034-23.273v-1.5c-.639 0-1.209.406-1.417 1.01l1.417.49Zm6.341 0 1.418-.489a1.5 1.5 0 0 0-1.418-1.01v1.5ZM156.784 31v1.5a1.499 1.499 0 0 0 1.418-1.989l-1.418.489Zm-5.273 0-1.426.463c.2.618.776 1.037 1.426 1.037V31Zm-5.829-17.954 1.427-.464a1.5 1.5 0 0 0-1.427-1.037v1.5Zm-.182 0v-1.5a1.5 1.5 0 0 0-1.426 1.035l1.426.465Zm-6.17 8.806v-1.5a1.5 1.5 0 0 0-1.5 1.5h1.5Zm12.454 0h1.5a1.5 1.5 0 0 0-1.5-1.5v1.5Zm0 3.841v1.5a1.5 1.5 0 0 0 1.5-1.5h-1.5Zm-12.454 0h-1.5a1.5 1.5 0 0 0 1.5 1.5v-1.5Zm.329 3.807h-5.273v3h5.273v-3Zm-3.855 1.99 8.034-23.273-2.835-.98-8.035 23.273 2.836.98Zm6.616-22.263h6.341v-3h-6.341v3Zm4.923-1.01 8.023 23.272 2.836-.978-8.023-23.273-2.836.978Zm9.441 21.283h-5.273v3h5.273v-3Zm-3.846 1.037-5.829-17.955-2.854.927 5.83 17.954 2.853-.926Zm-7.256-18.991h-.182v3h.182v-3Zm-1.608 1.035-5.841 17.955 2.853.928 5.84-17.954-2.852-.929Zm-4.744 10.771h12.454v-3H139.33v3Zm10.954-1.5v3.841h3v-3.84h-3Zm1.5 2.341H139.33v3h12.454v-3Zm-10.954 1.5v-3.84h-3v3.84h3Z" fill="#041611" mask="url(#a)"/></svg>