<svg width="56" height="56" fill="none" xmlns="http://www.w3.org/2000/svg"><rect x="1" y="1" width="54" height="54" rx="27" fill="#002119"/><rect x="1" y="1" width="54" height="54" rx="27" stroke="#00FFC2" stroke-width="2"/><path d="M31.908 29.721c-1.185-.055-1.777-.083-2.27.186-.491.27-.788.783-1.38 1.81l-4.856 8.409c-1.47 2.545-2.204 3.817-1.665 4.803.54.986 2.007 1.055 4.943 1.192l8.51.398c1.185.055 1.778.083 2.27-.186s.789-.783 1.382-1.81l4.855-8.409c1.47-2.545 2.204-3.818 1.665-4.804-.54-.986-2.007-1.054-4.943-1.191l-8.511-.398ZM9.104 27.05a2 2 0 0 0-.031 1.944l6.403 11.952c.74 1.382 2.71 1.413 3.495.056l7.052-12.215a2 2 0 0 0 .02-1.962L19.56 15.013c-.75-1.367-2.706-1.388-3.485-.038L9.104 27.05ZM38.668 12.826c-.4-.693-.601-1.04-.9-1.276a2 2 0 0 0-.416-.255c-.346-.157-.746-.177-1.546-.216-8.2-.41-12.3-.614-12.918-.047-.326.3-.415.44-.55.862-.256.798 1.656 4.442 5.481 11.732l.487.927c.46.878.69 1.316 1.07 1.592.07.05.143.096.22.138.412.224.908.241 1.9.277l8.21.293c3.195.114 4.792.171 5.4-.84.607-1.01-.194-2.394-1.794-5.16l-4.644-8.027Z" fill="#00FFC2"/></svg>