<svg width="155" height="28" fill="none" xmlns="http://www.w3.org/2000/svg"><mask id="a" maskUnits="userSpaceOnUse" x="-1" y="-1" width="155" height="28" fill="#000"><path fill="#fff" d="M-1-1h154v27H-1z"/><path d="M.023 24V.727h15.681v4.057H4.944v5.545h9.954v4.057H4.943v5.557H15.75V24H.023ZM19.616.727h6.069l6.409 15.637h.273L38.776.727h6.068V24H40.07V8.852h-.193l-6.023 15.034h-3.25l-6.023-15.09h-.193V24h-4.773V.727ZM48.898 24V.727h9.181c1.766 0 3.27.337 4.512 1.012 1.242.666 2.19 1.594 2.84 2.784.66 1.182.99 2.545.99 4.09 0 1.546-.334 2.91-1 4.091-.667 1.182-1.633 2.103-2.898 2.762-1.258.659-2.78.989-4.569.989h-5.852V12.51h5.057c.947 0 1.727-.162 2.341-.488.621-.334 1.083-.792 1.386-1.375.311-.591.466-1.27.466-2.034 0-.773-.155-1.447-.466-2.023-.303-.583-.765-1.034-1.386-1.352-.621-.326-1.41-.489-2.364-.489h-3.318V24h-4.92Zm20.718 0V.727h9.182c1.758 0 3.258.315 4.5.943 1.25.622 2.201 1.504 2.853 2.648.659 1.137.988 2.474.988 4.012 0 1.545-.333 2.874-1 3.988-.666 1.106-1.632 1.955-2.897 2.546-1.258.59-2.78.886-4.569.886h-6.147v-3.954h5.352c.94 0 1.72-.13 2.34-.387.622-.258 1.084-.644 1.387-1.159.31-.515.466-1.155.466-1.92 0-.773-.155-1.425-.466-1.955-.303-.53-.769-.932-1.398-1.205-.62-.28-1.405-.42-2.352-.42h-3.318V24h-4.92Zm12.569-10.59L87.969 24h-5.432l-5.66-10.59h5.308ZM90.616 24V.727h15.682v4.057H95.537v5.545h9.954v4.057h-9.954v5.557h10.807V24H90.617Zm32.219-16.58c-.091-.916-.481-1.628-1.17-2.136-.69-.507-1.625-.761-2.807-.761-.803 0-1.481.113-2.034.34-.553.22-.977.527-1.273.921-.288.394-.432.841-.432 1.341-.015.417.072.78.262 1.09.197.312.466.58.807.808.34.22.734.413 1.181.58.447.158.925.295 1.432.408l2.091.5c1.015.228 1.947.53 2.796.91a8.491 8.491 0 0 1 2.204 1.397 5.812 5.812 0 0 1 1.443 1.955c.349.75.527 1.61.534 2.58-.007 1.423-.371 2.658-1.091 3.704-.712 1.038-1.742 1.845-3.09 2.42-1.341.569-2.959.852-4.853.852-1.879 0-3.515-.287-4.909-.863-1.386-.576-2.47-1.428-3.25-2.557-.773-1.136-1.178-2.542-1.216-4.216h4.762c.053.78.276 1.432.67 1.955.402.515.936.905 1.602 1.17.675.258 1.436.386 2.284.386.834 0 1.557-.12 2.171-.363.621-.242 1.102-.58 1.443-1.012.341-.431.511-.928.511-1.488 0-.523-.155-.962-.465-1.318-.304-.356-.75-.66-1.341-.91-.584-.25-1.3-.477-2.148-.681l-2.534-.636c-1.962-.478-3.512-1.224-4.648-2.24-1.136-1.014-1.701-2.382-1.693-4.101-.008-1.41.367-2.64 1.125-3.694.765-1.053 1.814-1.875 3.148-2.466 1.333-.59 2.848-.886 4.545-.886 1.727 0 3.235.296 4.523.886 1.295.591 2.303 1.413 3.023 2.466.719 1.053 1.09 2.273 1.113 3.66h-4.716ZM134.659 24h-5.273L137.42.727h6.341L151.784 24h-5.273l-5.829-17.955h-.182L134.659 24Zm-.329-9.148h12.454v3.841H134.33v-3.84Z"/></mask><path d="M.023 24V.727h15.681v4.057H4.944v5.545h9.954v4.057H4.943v5.557H15.75V24H.023ZM19.616.727h6.069l6.409 15.637h.273L38.776.727h6.068V24H40.07V8.852h-.193l-6.023 15.034h-3.25l-6.023-15.09h-.193V24h-4.773V.727ZM48.898 24V.727h9.181c1.766 0 3.27.337 4.512 1.012 1.242.666 2.19 1.594 2.84 2.784.66 1.182.99 2.545.99 4.09 0 1.546-.334 2.91-1 4.091-.667 1.182-1.633 2.103-2.898 2.762-1.258.659-2.78.989-4.569.989h-5.852V12.51h5.057c.947 0 1.727-.162 2.341-.488.621-.334 1.083-.792 1.386-1.375.311-.591.466-1.27.466-2.034 0-.773-.155-1.447-.466-2.023-.303-.583-.765-1.034-1.386-1.352-.621-.326-1.41-.489-2.364-.489h-3.318V24h-4.92Zm20.718 0V.727h9.182c1.758 0 3.258.315 4.5.943 1.25.622 2.201 1.504 2.853 2.648.659 1.137.988 2.474.988 4.012 0 1.545-.333 2.874-1 3.988-.666 1.106-1.632 1.955-2.897 2.546-1.258.59-2.78.886-4.569.886h-6.147v-3.954h5.352c.94 0 1.72-.13 2.34-.387.622-.258 1.084-.644 1.387-1.159.31-.515.466-1.155.466-1.92 0-.773-.155-1.425-.466-1.955-.303-.53-.769-.932-1.398-1.205-.62-.28-1.405-.42-2.352-.42h-3.318V24h-4.92Zm12.569-10.59L87.969 24h-5.432l-5.66-10.59h5.308ZM90.616 24V.727h15.682v4.057H95.537v5.545h9.954v4.057h-9.954v5.557h10.807V24H90.617Zm32.219-16.58c-.091-.916-.481-1.628-1.17-2.136-.69-.507-1.625-.761-2.807-.761-.803 0-1.481.113-2.034.34-.553.22-.977.527-1.273.921-.288.394-.432.841-.432 1.341-.015.417.072.78.262 1.09.197.312.466.58.807.808.34.22.734.413 1.181.58.447.158.925.295 1.432.408l2.091.5c1.015.228 1.947.53 2.796.91a8.491 8.491 0 0 1 2.204 1.397 5.812 5.812 0 0 1 1.443 1.955c.349.75.527 1.61.534 2.58-.007 1.423-.371 2.658-1.091 3.704-.712 1.038-1.742 1.845-3.09 2.42-1.341.569-2.959.852-4.853.852-1.879 0-3.515-.287-4.909-.863-1.386-.576-2.47-1.428-3.25-2.557-.773-1.136-1.178-2.542-1.216-4.216h4.762c.053.78.276 1.432.67 1.955.402.515.936.905 1.602 1.17.675.258 1.436.386 2.284.386.834 0 1.557-.12 2.171-.363.621-.242 1.102-.58 1.443-1.012.341-.431.511-.928.511-1.488 0-.523-.155-.962-.465-1.318-.304-.356-.75-.66-1.341-.91-.584-.25-1.3-.477-2.148-.681l-2.534-.636c-1.962-.478-3.512-1.224-4.648-2.24-1.136-1.014-1.701-2.382-1.693-4.101-.008-1.41.367-2.64 1.125-3.694.765-1.053 1.814-1.875 3.148-2.466 1.333-.59 2.848-.886 4.545-.886 1.727 0 3.235.296 4.523.886 1.295.591 2.303 1.413 3.023 2.466.719 1.053 1.09 2.273 1.113 3.66h-4.716ZM134.659 24h-5.273L137.42.727h6.341L151.784 24h-5.273l-5.829-17.955h-.182L134.659 24Zm-.329-9.148h12.454v3.841H134.33v-3.84Z" fill="#00FFC2"/><path d="M.023 24h-1a1 1 0 0 0 1 1v-1Zm0-23.273v-1a1 1 0 0 0-1 1h1Zm15.681 0h1a1 1 0 0 0-1-1v1Zm0 4.057v1a1 1 0 0 0 1-1h-1Zm-10.76 0v-1a1 1 0 0 0-1 1h1Zm0 5.545h-1a1 1 0 0 0 1 1v-1Zm9.954 0h1a1 1 0 0 0-1-1v1Zm0 4.057v1a1 1 0 0 0 1-1h-1Zm-9.955 0v-1a1 1 0 0 0-1 1h1Zm0 5.557h-1a1 1 0 0 0 1 1v-1Zm10.807 0h1a1 1 0 0 0-1-1v1Zm0 4.057v1a1 1 0 0 0 1-1h-1ZM1.023 24V.727h-2V24h2Zm-1-22.273h15.681v-2H.024v2Zm14.681-1v4.057h2V.727h-2Zm1 3.057H4.944v2h10.76v-2Zm-11.76 1v5.545h2V4.784h-2Zm1 6.545h9.954v-2H4.943v2Zm8.954-1v4.057h2V10.33h-2Zm1 3.057H4.943v2h9.955v-2Zm-10.955 1v5.557h2v-5.557h-2Zm1 6.557H15.75v-2H4.943v2Zm9.807-1V24h2v-4.057h-2Zm1 3.057H.023v2H15.75v-2ZM19.616.727v-1a1 1 0 0 0-1 1h1Zm6.069 0 .925-.379a1 1 0 0 0-.925-.62v1Zm6.409 15.637-.925.379a1 1 0 0 0 .925.62v-1Zm.273 0v1a1 1 0 0 0 .925-.621l-.925-.38ZM38.776.727v-1a1 1 0 0 0-.926.621l.926.38Zm6.068 0h1a1 1 0 0 0-1-1v1Zm0 23.273v1a1 1 0 0 0 1-1h-1Zm-4.773 0h-1a1 1 0 0 0 1 1v-1Zm0-15.148h1a1 1 0 0 0-1-1v1Zm-.193 0v-1a1 1 0 0 0-.928.628l.928.372Zm-6.023 15.034v1a1 1 0 0 0 .928-.628l-.928-.372Zm-3.25 0-.929.371a1 1 0 0 0 .93.63v-1Zm-6.023-15.09.93-.371a1 1 0 0 0-.93-.63v1Zm-.193 0v-1a1 1 0 0 0-1 1h1Zm0 15.204v1a1 1 0 0 0 1-1h-1Zm-4.773 0h-1a1 1 0 0 0 1 1v-1Zm0-22.273h6.069v-2h-6.069v2Zm5.143-.62 6.41 15.636 1.85-.759L26.609.348l-1.85.759Zm7.335 16.257h.273v-2h-.273v2Zm1.198-.621L39.7 1.107 37.85.348l-6.41 15.636 1.85.759Zm5.484-15.016h6.068v-2h-6.068v2Zm5.068-1V24h2V.727h-2Zm1 22.273H40.07v2h4.773v-2Zm-3.773 1V8.852h-2V24h2Zm-1-16.148h-.193v2h.193v-2Zm-1.121.628-6.023 15.035 1.856.743 6.023-15.034-1.856-.744Zm-5.095 14.406h-3.25v2h3.25v-2Zm-2.321.63L25.51 8.425l-1.857.741 6.022 15.091 1.858-.741Zm-6.952-15.72h-.193v2h.193v-2Zm-1.193 1V24h2V8.795h-2Zm1 14.204h-4.773v2h4.773v-2Zm-3.773 1V.727h-2V24h2Zm28.282 0h-1a1 1 0 0 0 1 1v-1Zm0-23.273v-1a1 1 0 0 0-1 1h1ZM62.59 1.74l-.477.879.004.002.473-.881Zm2.84 2.784-.876.48.003.007.874-.487Zm-2.908 10.943-.462-.887-.002.001.464.886Zm-10.42.989h-1a1 1 0 0 0 1 1v-1Zm0-3.944v-1a1 1 0 0 0-1 1h1Zm7.397-.488.469.883.004-.002-.473-.881Zm1.386-1.375-.885-.466-.002.005.887.46Zm0-4.057L60 7.05l.007.015.88-.475ZM59.5 5.239l-.464.885.008.005.456-.89Zm-5.682-.489v-1a1 1 0 0 0-1 1h1Zm0 19.25v1a1 1 0 0 0 1-1h-1Zm-3.92 0V.727h-2V24h2Zm-1-22.273h9.181v-2h-9.181v2Zm9.181 0c1.64 0 2.971.313 4.035.89L63.068.86C61.647.089 59.97-.273 58.08-.273v2Zm4.04.893c1.078.579 1.881 1.37 2.436 2.383l1.754-.96c-.749-1.367-1.84-2.431-3.245-3.186l-.946 1.763Zm2.44 2.39c.564 1.013.862 2.204.862 3.604h2c0-1.692-.363-3.228-1.116-4.578l-1.747.974Zm.862 3.604c0 1.397-.3 2.587-.872 3.6l1.742.982c.763-1.352 1.13-2.889 1.13-4.582h-2Zm-.872 3.6c-.566 1.003-1.386 1.79-2.488 2.365l.924 1.774c1.427-.744 2.54-1.798 3.306-3.157l-1.742-.983Zm-2.49 2.366c-1.082.567-2.437.874-4.104.874v2c1.908 0 3.599-.351 5.032-1.102l-.928-1.772Zm-4.104.874h-5.853v2h5.853v-2Zm-4.853 1v-3.943h-2v3.944h2Zm-1-2.943h5.057v-2h-5.057v2Zm5.057 0c1.054 0 2.009-.18 2.81-.605l-.938-1.767c-.426.227-1.032.372-1.872.372v2Zm2.814-.607c.785-.421 1.398-1.02 1.8-1.795L60 10.187c-.204.391-.514.71-.972.955l.946 1.762Zm1.799-1.791c.396-.754.58-1.596.58-2.5h-2c0 .628-.126 1.142-.35 1.57l1.77.93Zm.58-2.5c0-.908-.183-1.75-.585-2.497l-1.76.95c.218.405.345.91.345 1.548h2Zm-.578-2.483c-.405-.78-1.024-1.375-1.818-1.781l-.912 1.78c.449.23.754.536.955.923l1.775-.922Zm-1.81-1.777c-.806-.423-1.767-.603-2.828-.603v2c.849 0 1.464.146 1.9.374l.928-1.771Zm-2.828-.603h-3.318v2h3.318v-2Zm-4.318 1V24h2V4.75h-2Zm1 18.25h-4.92v2h4.92v-2Zm15.799 1h-1a1 1 0 0 0 1 1v-1Zm0-23.273v-1a1 1 0 0 0-1 1h1Zm13.681.943-.451.893.006.003.445-.896Zm2.853 2.648-.87.495.004.007.866-.502Zm-.012 8 .857.516.001-.002-.858-.514Zm-2.897 2.546-.424-.906h-.002l.425.906Zm-10.716.886h-1a1 1 0 0 0 1 1v-1Zm0-3.954v-1a1 1 0 0 0-1 1h1Zm7.693-.387.383.924-.383-.924Zm1.386-1.159-.856-.516-.006.009.862.507Zm0-3.875-.868.496.005.01.863-.506ZM80.207 5.17l-.41.912a.75.75 0 0 0 .013.006l.397-.918Zm-5.67-.42v-1a1 1 0 0 0-1 1h1Zm0 19.25v1a1 1 0 0 0 1-1h-1Zm7.648-10.59.877-.48a1 1 0 0 0-.877-.52v1ZM87.969 24v1a1 1 0 0 0 .877-1.48l-.877.48Zm-5.432 0-.882.471a1 1 0 0 0 .882.529v-1Zm-5.66-10.59v-1a1 1 0 0 0-.881 1.47l.882-.47ZM70.618 24V.727h-2V24h2Zm-1-22.273h9.181v-2h-9.181v2Zm9.181 0c1.641 0 2.978.294 4.049.836L83.75.778c-1.414-.716-3.077-1.05-4.952-1.05v2Zm4.055.839c1.084.538 1.882 1.286 2.429 2.247l1.737-.99C86.264 2.496 85.16 1.48 83.743.775l-.89 1.791Zm2.433 2.254c.556.96.853 2.118.853 3.51h2c0-1.684-.362-3.2-1.123-4.514l-1.73 1.004Zm.853 3.51c0 1.399-.3 2.543-.858 3.475l1.716 1.027c.776-1.296 1.142-2.81 1.142-4.502h-2Zm-.856 3.472c-.556.922-1.364 1.642-2.465 2.156l.847 1.812c1.43-.668 2.553-1.646 3.33-2.936l-1.712-1.032Zm-2.467 2.157c-1.092.513-2.461.791-4.143.791v2c1.895 0 3.57-.313 4.994-.981l-.85-1.81Zm-4.143.791h-6.147v2h6.147v-2Zm-5.147 1v-3.954h-2v3.954h2Zm-1-2.954h5.352v-2h-5.352v2Zm5.352 0c1.022 0 1.943-.14 2.724-.463l-.766-1.848c-.462.192-1.102.31-1.958.31v2Zm2.724-.463c.795-.33 1.438-.85 1.865-1.576l-1.724-1.014c-.18.305-.46.557-.907.742l.766 1.848Zm1.86-1.567c.426-.708.609-1.538.609-2.436h-2c0 .632-.128 1.081-.322 1.404l1.713 1.032Zm.609-2.436c0-.906-.182-1.742-.603-2.46l-1.726 1.01c.2.343.329.81.329 1.45h2Zm-.598-2.451c-.423-.74-1.066-1.278-1.868-1.626l-.796 1.835c.457.198.745.463.928.783l1.736-.992Zm-1.854-1.62c-.79-.357-1.727-.509-2.764-.509v2c.857 0 1.49.128 1.941.332l.823-1.823Zm-2.764-.509h-3.318v2h3.318v-2Zm-4.318 1V24h2V4.75h-2Zm1 18.25h-4.92v2h4.92v-2Zm6.77-9.112 5.784 10.591 1.755-.958-5.784-10.591-1.755.958ZM87.969 23h-5.432v2h5.432v-2Zm-4.55.529-5.66-10.591-1.763.942 5.659 10.591 1.764-.942Zm-6.541-9.12h5.307v-2h-5.307v2ZM90.617 24h-1a1 1 0 0 0 1 1v-1Zm0-23.273v-1a1 1 0 0 0-1 1h1Zm15.681 0h1a1 1 0 0 0-1-1v1Zm0 4.057v1a1 1 0 0 0 1-1h-1Zm-10.761 0v-1a1 1 0 0 0-1 1h1Zm0 5.545h-1a1 1 0 0 0 1 1v-1Zm9.954 0h1a1 1 0 0 0-1-1v1Zm0 4.057v1a1 1 0 0 0 1-1h-1Zm-9.954 0v-1a1 1 0 0 0-1 1h1Zm0 5.557h-1a1 1 0 0 0 1 1v-1Zm10.807 0h1a1 1 0 0 0-1-1v1Zm0 4.057v1a1 1 0 0 0 1-1h-1Zm-14.727 0V.727h-2V24h2Zm-1-22.273h15.681v-2H90.617v2Zm14.681-1v4.057h2V.727h-2Zm1 3.057H95.537v2h10.761v-2Zm-11.761 1v5.545h2V4.784h-2Zm1 6.545h9.954v-2h-9.954v2Zm8.954-1v4.057h2V10.33h-2Zm1 3.057h-9.954v2h9.954v-2Zm-10.954 1v5.557h2v-5.557h-2Zm1 6.557h10.807v-2H95.537v2Zm9.807-1V24h2v-4.057h-2Zm1 3.057H90.617v2h15.727v-2Zm16.491-15.58-.995.1a1 1 0 0 0 .995.9v-1Zm-6.011-2.556.369.93.011-.005-.38-.925Zm-1.273.92-.8-.6-.007.01.807.59Zm-.432 1.341 1 .036v-.036h-1Zm.262 1.09-.854.522.009.014.845-.535Zm.807.808-.555.832a.135.135 0 0 0 .013.008l.542-.84Zm1.181.58-.349.936.014.005.335-.942Zm1.432.408.233-.972-.014-.003-.219.975Zm2.091.5-.233.973.015.003.218-.976Zm2.796.91-.408.913.408-.913Zm2.204 1.397.665-.747-.665.747Zm1.443 1.955-.91.414.003.007.907-.421Zm.534 2.58 1 .005v-.014l-1 .008Zm-1.091 3.704-.823-.567-.001.001.824.566Zm-3.09 2.42.39.921.002-.001-.392-.92Zm-9.762-.011-.383.923.001.001.382-.924Zm-3.25-2.557-.827.562.005.007.822-.569Zm-1.216-4.216v-1a1 1 0 0 0-1 1.023l1-.023Zm4.762 0 .997-.068a.999.999 0 0 0-.997-.932v1Zm.67 1.955-.799.602a.112.112 0 0 1 .01.012l.789-.614Zm1.602 1.17-.369.93.012.004.357-.934Zm4.455.023-.364-.932-.004.002.368.93Zm1.443-1.012.785.62-.785-.62Zm.046-2.806-.762.648.008.01.754-.658Zm-1.341-.91-.394.92.004.002.39-.921Zm-2.148-.681-.244.97.01.002.234-.972Zm-2.534-.636.243-.97-.007-.002-.236.972Zm-4.648-2.24-.666.747.666-.746Zm-1.693-4.101 1 .004v-.01l-1 .006Zm1.125-3.694-.809-.587-.003.003.812.584Zm12.216-2.466-.417.91H123l.415-.91Zm3.023 2.466-.826.565.826-.565Zm1.113 3.66v1a1 1 0 0 0 1-1.017l-1 .016Zm-3.721-.1c-.116-1.174-.636-2.153-1.572-2.842l-1.186 1.61c.442.326.703.771.768 1.43l1.99-.197Zm-1.572-2.842c-.916-.674-2.084-.956-3.4-.956v2c1.048 0 1.751.225 2.214.566l1.186-1.61Zm-3.4-.956c-.891 0-1.707.125-2.414.416l.76 1.85c.399-.164.939-.266 1.654-.266v-2Zm-2.403.411c-.689.274-1.277.68-1.704 1.25l1.6 1.2c.164-.218.424-.425.842-.591l-.738-1.859Zm-1.711 1.26a3.21 3.21 0 0 0-.625 1.931h2c0-.294.08-.533.24-.75l-1.615-1.18Zm-.624 1.895c-.021.583.101 1.146.407 1.648l1.707-1.042c-.073-.12-.124-.283-.115-.534l-1.999-.072Zm.416 1.662c.28.442.653.808 1.097 1.104l1.109-1.664a1.731 1.731 0 0 1-.517-.51l-1.689 1.07Zm1.11 1.112a7.13 7.13 0 0 0 1.374.676l.699-1.874a5.144 5.144 0 0 1-.99-.483l-1.083 1.681Zm1.388.681c.489.174 1.005.322 1.549.443l.437-1.951c-.472-.106-.91-.232-1.315-.376l-.671 1.884Zm1.535.44 2.09.5.466-1.945-2.091-.5-.465 1.945Zm2.105.503c.957.215 1.825.498 2.606.847l.815-1.827a15.754 15.754 0 0 0-2.984-.971l-.437 1.951Zm2.606.847a7.5 7.5 0 0 1 1.947 1.231l1.33-1.494a9.475 9.475 0 0 0-2.462-1.564l-.815 1.827Zm1.947 1.231c.518.461.915 1 1.198 1.622l1.821-.828a6.825 6.825 0 0 0-1.689-2.288l-1.33 1.494Zm1.201 1.63c.279.599.435 1.314.441 2.165l2-.015c-.008-1.089-.209-2.094-.627-2.994l-1.814.843Zm.441 2.152c-.006 1.249-.322 2.282-.914 3.143l1.647 1.134c.847-1.23 1.259-2.667 1.267-4.266l-2-.011Zm-.915 3.144c-.588.857-1.456 1.553-2.659 2.067l.785 1.839c1.494-.638 2.687-1.556 3.523-2.774l-1.649-1.132Zm-2.657 2.066c-1.186.502-2.663.773-4.462.773v2c1.99 0 3.747-.298 5.243-.932l-.781-1.841Zm-4.462.773c-1.779 0-3.28-.273-4.527-.788l-.764 1.848c1.541.637 3.313.94 5.291.94v-2Zm-4.525-.788c-1.227-.509-2.15-1.245-2.811-2.202l-1.645 1.138c.899 1.301 2.142 2.27 3.689 2.911l.767-1.847Zm-2.807-2.195c-.643-.945-1.009-2.152-1.043-3.676l-2 .045c.042 1.824.486 3.428 1.389 4.755l1.654-1.124Zm-2.043-2.654h4.762v-2h-4.762v2Zm3.764-.932c.063.936.338 1.783.869 2.489l1.598-1.204c-.256-.34-.429-.796-.472-1.42l-1.995.135Zm.879 2.502c.522.668 1.207 1.16 2.022 1.484l.739-1.858c-.518-.206-.902-.495-1.183-.856l-1.578 1.23Zm2.034 1.49c.807.307 1.692.451 2.641.451v-2c-.747 0-1.385-.113-1.927-.32l-.714 1.868Zm2.641.451c.928 0 1.781-.134 2.538-.433l-.735-1.86c-.47.186-1.063.293-1.803.293v2Zm2.534-.431c.752-.294 1.393-.726 1.865-1.324l-1.57-1.24c-.209.266-.531.509-1.022.7l.727 1.864Zm1.865-1.324a3.335 3.335 0 0 0 .726-2.108h-2c0 .34-.097.617-.296.869l1.57 1.24Zm.726-2.108c0-.737-.225-1.418-.712-1.976l-1.507 1.315c.134.154.219.352.219.66h2Zm-.704-1.966c-.434-.51-1.029-.893-1.713-1.182l-.779 1.842c.498.21.797.434.969.636l1.523-1.296Zm-1.708-1.18c-.651-.28-1.423-.522-2.308-.735l-.468 1.944c.812.196 1.471.407 1.988.629l.788-1.839Zm-2.299-.733-2.534-.636-.487 1.94 2.534.636.487-1.94Zm-2.541-.638c-1.852-.45-3.237-1.137-4.218-2.013l-1.332 1.492c1.292 1.154 3.006 1.96 5.077 2.464l.473-1.943Zm-4.218-2.013c-.894-.799-1.366-1.878-1.359-3.352l-2-.009c-.009 1.965.648 3.621 2.027 4.853l1.332-1.492Zm-1.359-3.362c-.007-1.217.313-2.237.937-3.104l-1.624-1.168c-.892 1.24-1.322 2.682-1.313 4.283l2-.01Zm.934-3.1c.649-.894 1.552-1.611 2.744-2.14l-.811-1.828c-1.474.654-2.67 1.58-3.551 2.793l1.618 1.175Zm2.744-2.14c1.186-.525 2.56-.8 4.14-.8v-2c-1.814 0-3.47.316-4.951.972l.811 1.829Zm4.14-.8c1.614 0 2.974.276 4.106.795l.834-1.817c-1.444-.663-3.1-.978-4.94-.978v2Zm4.108.796c1.149.525 2.007 1.235 2.612 2.12l1.651-1.128c-.834-1.22-1.992-2.154-3.433-2.811l-.83 1.82Zm2.612 2.12c.6.878.919 1.903.939 3.112l2-.033c-.026-1.564-.448-2.978-1.288-4.207l-1.651 1.129Zm1.939 2.095h-4.716v2h4.716v-2ZM134.659 24v1a1 1 0 0 0 .951-.69l-.951-.31Zm-5.273 0-.945-.326a1 1 0 0 0 .945 1.326v-1ZM137.42.727v-1a1 1 0 0 0-.945.674l.945.326Zm6.341 0 .946-.326a1 1 0 0 0-.946-.674v1ZM151.784 24v1a.999.999 0 0 0 .945-1.326l-.945.326Zm-5.273 0-.951.309a1 1 0 0 0 .951.691v-1Zm-5.829-17.955.951-.308a1 1 0 0 0-.951-.692v1Zm-.182 0v-1a1 1 0 0 0-.951.691l.951.31Zm-6.17 8.807v-1a1 1 0 0 0-1 1h1Zm12.454 0h1a1 1 0 0 0-1-1v1Zm0 3.841v1a1 1 0 0 0 1-1h-1Zm-12.454 0h-1a1 1 0 0 0 1 1v-1Zm.329 4.307h-5.273v2h5.273v-2Zm-4.327 1.326 8.034-23.272L136.475.4l-8.034 23.273 1.891.652Zm7.088-22.599h6.341v-2h-6.341v2Zm5.396-.674 8.023 23.273 1.89-.652L144.707.401l-1.891.652ZM151.784 23h-5.273v2h5.273v-2Zm-4.322.691-5.829-17.954-1.902.617 5.829 17.955 1.902-.618Zm-6.78-18.646h-.182v2h.182v-2Zm-1.133.691-5.841 17.955 1.902.618 5.841-17.954-1.902-.619Zm-5.219 10.116h12.454v-2H134.33v2Zm11.454-1v3.841h2v-3.84h-2Zm1 2.841H134.33v2h12.454v-2Zm-11.454 1v-3.84h-2v3.84h2Z" fill="#002119" mask="url(#a)"/></svg>